<?xml version="1.0" standalone="no"?>
<!DOCTYPE svg PUBLIC "-//W3C//DTD SVG 20010904//EN"
 "http://www.w3.org/TR/2001/REC-SVG-20010904/DTD/svg10.dtd">
<svg version="1.0" xmlns="http://www.w3.org/2000/svg"
 width="2174.000000pt" height="2174.000000pt" viewBox="0 0 2174.000000 2174.000000"
 preserveAspectRatio="xMidYMid meet">
<metadata>
Created by potrace 1.11, written by Peter Selinger 2001-2013
</metadata>
<g transform="translate(0.000000,2174.000000) scale(0.100000,-0.100000)"
fill="#000000" stroke="none">
<path d="M10675 21724 c-181 -39 -292 -127 -444 -353 -1777 -2642 -2839 -6364
-3086 -10816 -43 -780 -58 -1420 -54 -2293 4 -619 2 -702 -11 -702 -38 0 -125
-55 -221 -138 -503 -434 -856 -979 -1095 -1687 -222 -659 -314 -1352 -301
-2260 9 -603 56 -1111 163 -1750 74 -446 224 -1132 268 -1230 32 -70 78 -120
140 -149 140 -66 302 -29 387 89 15 22 299 679 630 1460 330 781 607 1431 615
1445 7 14 22 35 32 48 l18 23 74 -21 c51 -14 120 -22 218 -27 78 -3 142 -10
142 -14 0 -4 -37 -112 -81 -241 -76 -215 -82 -239 -83 -313 0 -101 31 -172
105 -239 97 -87 1 -81 1242 -84 857 -2 1097 -5 1097 -15 0 -95 230 -2308 247
-2375 3 -12 18 -36 33 -52 26 -27 34 -30 93 -30 56 0 68 3 91 26 14 15 31 43
36 63 17 63 250 2270 250 2373 0 4 496 9 1103 10 l1102 3 55 26 c79 37 125 81
161 155 28 56 32 76 32 137 -1 63 -11 101 -85 318 l-85 246 147 6 c155 6 264
31 339 78 l34 21 48 -52 c44 -48 81 -132 644 -1463 329 -777 609 -1433 622
-1459 33 -68 77 -114 136 -142 162 -79 358 -8 426 154 14 33 70 260 120 485
149 673 246 1338 291 1985 16 229 12 1112 -5 1325 -125 1529 -665 2636 -1617
3317 l-118 83 -4 890 c-4 865 -10 1107 -41 1745 -213 4287 -1154 7860 -2775
10535 -253 417 -407 642 -491 718 -143 130 -347 182 -544 141z"/>
</g>
</svg>
